<svg width="500" height="500" viewBox="0 0 500 500" fill="none" xmlns="http://www.w3.org/2000/svg">
<path fill-rule="evenodd" clip-rule="evenodd" d="M230.84 225.798C175.161 270.587 155.824 338.971 155.824 338.971C155.824 338.971 226.766 334.743 282.446 289.956C338.129 245.168 357.464 176.782 357.464 176.782C357.464 176.782 286.523 181.01 230.84 225.798Z" fill="#6C63FF"/>
<path fill-rule="evenodd" clip-rule="evenodd" d="M211.295 244.158C229.574 175.077 204.598 108.545 204.598 108.545C204.598 108.545 149.979 154.013 131.697 223.092C113.414 292.174 138.393 358.707 138.393 358.707C138.393 358.707 193.011 313.239 211.295 244.158Z" fill="#6C63FF"/>
<path fill-rule="evenodd" clip-rule="evenodd" d="M202.845 274.888C186.882 297.103 174.463 321.658 166.03 347.681L164.767 352.143L169.396 351.865C170.116 351.822 242.033 347.055 297.885 302.129C353.735 257.2 373.81 187.978 374.008 187.286L375.268 182.825L370.641 183.102C369.922 183.145 298.004 187.911 242.15 232.839C227.214 245.022 213.993 259.166 202.845 274.888ZM173.866 344.827C179.338 328.808 200.378 274.896 246.279 237.97C292.224 201.014 349.357 192.044 366.172 190.139C360.699 206.165 339.66 260.076 293.755 296.995C247.811 333.953 190.679 342.92 173.866 344.827Z" fill="white" fill-opacity="0.35"/>
<path fill-rule="evenodd" clip-rule="evenodd" d="M204.73 188.029C204.413 160.675 199.854 133.538 191.215 107.583L189.587 103.242L186.024 106.21C185.47 106.671 130.384 153.152 112.047 222.445C93.7132 291.739 118.591 359.384 118.842 360.058L120.472 364.397L124.034 361.431C124.588 360.97 179.674 314.49 198.012 245.194C202.816 226.528 205.075 207.299 204.73 188.029ZM186.597 114.527C191.689 130.671 206.712 186.559 191.645 243.51C176.559 300.511 135.872 341.611 123.461 353.114C118.365 336.964 103.342 281.077 118.417 224.13C133.5 167.128 174.189 126.032 186.597 114.527Z" fill="white" fill-opacity="0.35"/>
<path fill-rule="evenodd" clip-rule="evenodd" d="M258.944 294.812C182.345 303.116 125.035 353.98 125.035 353.98C125.035 353.98 191.916 391.376 268.513 383.073C345.112 374.766 402.423 323.905 402.423 323.905C402.423 323.905 335.543 286.506 258.944 294.812Z" fill="#FF6584"/>
<path fill-rule="evenodd" clip-rule="evenodd" d="M195.357 318.912C167.946 329.807 142.394 344.89 119.609 363.619L115.873 366.935L120.234 369.374C120.914 369.752 188.993 407.227 265.828 398.897C342.669 390.558 401.135 339.368 401.715 338.854L405.45 335.539L401.09 333.1C400.41 332.718 332.329 295.244 255.493 303.576C234.849 305.957 214.62 311.116 195.357 318.912ZM128.389 365.576C142.677 354.205 193.122 317.478 256.256 310.64C319.393 303.792 376.543 328.849 392.935 336.897C378.646 348.265 328.206 384.99 265.065 391.834C201.93 398.681 144.78 373.621 128.389 365.576Z" fill="white" fill-opacity="0.35"/>
</svg>
